<svg version="1.1" xmlns="http://www.w3.org/2000/svg" xmlns:xlink="http://www.w3.org/1999/xlink" width="256.000000pt" height="256.000000pt" viewBox="0,0,256,256"><g fill="#000000" fill-rule="nonzero" stroke="none" stroke-width="1" stroke-linecap="butt" stroke-linejoin="miter" stroke-miterlimit="10" stroke-dasharray="" stroke-dashoffset="0" font-family="none" font-weight="none" font-size="none" text-anchor="none" style="mix-blend-mode: normal"><g transform="translate(2.3871,4.55)"><g transform="translate(0,256) scale(0.1,-0.1)"><path d="M1041,2126c-12,-19 -38,-45 -57,-57l-35,-21l28,-18c32,-19 83,-76 83,-92c0,-6 13,7 29,30c17,22 44,48 60,58c30,18 40,34 22,34c-4,0 -31,23 -59,50l-50,51z"></path><path d="M725,1871c-20,-45 -94,-119 -144,-145l-32,-17l60,-40c40,-27 73,-60 100,-100l40,-60l17,32c26,50 100,124 145,144l41,19l-38,19c-20,10 -58,40 -84,67c-27,26 -57,64 -67,84l-19,38z"></path><path d="M1241,1768c-111,-305 -239,-435 -539,-549c-62,-23 -109,-45 -105,-49c4,-4 49,-22 98,-40c290,-106 424,-236 532,-516c26,-68 50,-124 53,-124c3,0 27,56 53,124c106,276 246,412 532,516c50,18 93,36 98,40c4,3 -39,24 -95,45c-304,112 -438,247 -549,553c-18,50 -36,92 -39,92c-3,0 -21,-42 -39,-92zM1318,1421c43,-63 132,-153 203,-206l58,-43l-39,-26c-62,-41 -174,-151 -216,-211c-20,-30 -40,-55 -44,-55c-4,0 -20,19 -35,43c-41,61 -131,152 -202,204l-61,46l57,42c71,53 160,143 203,206c18,27 35,48 38,48c3,0 20,-21 38,-48z"></path></g></g></g></svg>